HIERARCHY
ROOT locator2
{
  OFFSET 53.6172 30.1899 0.816905
  CHANNELS 6 Xposition Yposition Zposition Zrotation Xrotation Yrotation
  JOINT koshi
  {
    OFFSET 0 0 0
    CHANNELS 6 Xposition Yposition Zposition Zrotation Xrotation Yrotation
    JOINT sippo01
    {
      OFFSET 0 42.8363 -0.548134
      CHANNELS 6 Xposition Yposition Zposition Zrotation Xrotation Yrotation
      JOINT sippo02
      {
        OFFSET 0 44.0461 -3.28882
        CHANNELS 6 Xposition Yposition Zposition Zrotation Xrotation Yrotation
        JOINT sippo03
        {
          OFFSET 0 34.1929 -2.46662
          CHANNELS 6 Xposition Yposition Zposition Zrotation Xrotation Yrotation
          JOINT sippo04
          {
            OFFSET 0 30.0959 -1.75404
            CHANNELS 6 Xposition Yposition Zposition Zrotation Xrotation Yrotation
            JOINT sippo05
            {
              OFFSET 0 28.3637 -1.75404
              CHANNELS 6 Xposition Yposition Zposition Zrotation Xrotation Yrotation
              JOINT sippo06
              {
                OFFSET 0 31.6071 -3.2043
                CHANNELS 6 Xposition Yposition Zposition Zrotation Xrotation Yrotation
                End Site
                {
                  OFFSET 0 0 0
                }
              }
            }
          }
        }
      }
    }
    JOINT R_momo
    {
      OFFSET -27.891 13.5892 3.92723
      CHANNELS 6 Xposition Yposition Zposition Zrotation Xrotation Yrotation
      JOINT R_hiza
      {
        OFFSET 0 28.01 1.8232
        CHANNELS 6 Xposition Yposition Zposition Zrotation Xrotation Yrotation
        JOINT R_ashi
        {
          OFFSET 0 24.3992 -2.49174
          CHANNELS 6 Xposition Yposition Zposition Zrotation Xrotation Yrotation
          End Site
          {
            OFFSET 0 0 0
          }
        }
      }
    }
    JOINT L_momo
    {
      OFFSET 27.891 13.5892 3.92714
      CHANNELS 6 Xposition Yposition Zposition Zrotation Xrotation Yrotation
      JOINT L_hiza
      {
        OFFSET 0 28.0098 1.82319
        CHANNELS 6 Xposition Yposition Zposition Zrotation Xrotation Yrotation
        JOINT L_ashi
        {
          OFFSET 0 24.3992 -2.49171
          CHANNELS 6 Xposition Yposition Zposition Zrotation Xrotation Yrotation
          End Site
          {
            OFFSET 0 0 0
          }
        }
      }
    }
  }
  JOINT hara
  {
    OFFSET 0 2.15392 0
    CHANNELS 6 Xposition Yposition Zposition Zrotation Xrotation Yrotation
    JOINT mune
    {
      OFFSET 0 62.0609 0.472494
      CHANNELS 6 Xposition Yposition Zposition Zrotation Xrotation Yrotation
      JOINT R_kata
      {
        OFFSET 22.6695 9.65301 -5.3622
        CHANNELS 6 Xposition Yposition Zposition Zrotation Xrotation Yrotation
        JOINT R_hiji
        {
          OFFSET 0 25.813 1.69098
          CHANNELS 6 Xposition Yposition Zposition Zrotation Xrotation Yrotation
          JOINT R_te
          {
            OFFSET 0 28.5636 -0.966307
            CHANNELS 6 Xposition Yposition Zposition Zrotation Xrotation Yrotation
            End Site
            {
              OFFSET 0 0 0
            }
          }
        }
      }
      JOINT L_kata
      {
        OFFSET -22.6695 9.65298 -5.3622
        CHANNELS 6 Xposition Yposition Zposition Zrotation Xrotation Yrotation
        JOINT L_hiji
        {
          OFFSET 0 25.813 1.69102
          CHANNELS 6 Xposition Yposition Zposition Zrotation Xrotation Yrotation
          JOINT L_te
          {
            OFFSET 0 28.5636 -0.966295
            CHANNELS 6 Xposition Yposition Zposition Zrotation Xrotation Yrotation
            End Site
            {
              OFFSET 0 0 0
            }
          }
        }
      }
      JOINT kubi
      {
        OFFSET 0 23.1438 -0.944988
        CHANNELS 6 Xposition Yposition Zposition Zrotation Xrotation Yrotation
        JOINT atama
        {
          OFFSET 0 20.8625 4.12737
          CHANNELS 6 Xposition Yposition Zposition Zrotation Xrotation Yrotation
          JOINT ago
          {
            OFFSET 0 7.552 -7.58201
            CHANNELS 6 Xposition Yposition Zposition Zrotation Xrotation Yrotation
            End Site
            {
              OFFSET 0 0 0
            }
          }
        }
      }
    }
  }
}
MOTION
Frames:	7
Frame Time:	0.0333333
0 26.5759 -1.62388e-005 -90 -3.50835e-015 -90 0 0 0 -174.665 3.09234 0.502542 -1.49012e-007 42.8363 -0.548138 2.96678 -15.9213 3.7374 -1.99676e-006 44.0461 -3.28883 5.39957 9.40524 -5.26552 -9.53674e-007 34.1929 -2.46662 6.42316 1.07546 -1.69412 0 30.0959 -1.75404 6.02437 9.4123 -0.737797 1.52588e-005 28.3637 -1.75404 9.45908 -5.79972 5.77064 7.62939e-006 31.6072 -3.2043 5.23275 -6.13528 -5.40618 -27.891 13.5892 3.92723 117.514 -18.6498 -48.4464 3.8147e-006 28.01 1.8232 12.003 -82.2961 -3.9701 0 24.3992 -2.49173 -149.807 63.0235 -167.626 27.891 13.5892 3.92714 -102.229 -21.3578 59.5487 -3.8147e-006 28.0098 1.82319 -3.56823 -68.5004 9.57737 0 24.3992 -2.49172 140.854 67.2749 166.804 6.07685e-007 2.15392 0 5.4806e-008 -0.413068 -5.4806e-008 1.75087e-005 62.0609 0.472498 6.95874e-040 -2.62894e-017 1.51661e-021 22.6695 9.65298 -5.36221 -148.411 2.78319 46.4841 7.10543e-015 25.813 1.69097 179.965 -77.8744 179.747 -7.10543e-015 28.5636 -0.966307 40.9847 13.2095 -94.4041 -22.6695 9.65298 -5.3622 130.73 -5.34675 -52.4473 -7.10543e-015 25.813 1.69103 -179.768 -75.3076 -178.036 3.8147e-006 28.5636 -0.966302 -44.3064 34.5113 110.042 6.57606e-006 23.1438 -0.944992 5.1423e-007 -3.99487 -5.1423e-007 0.025115 20.8625 4.12738 -0.117056 -4.00345 -0.0634381 -4.47035e-008 7.55203 -7.58201 -1.00493e-005 4.27012 7.47582e-007 
0.230197 26.9345 0.137498 -90 -3.50835e-015 -90 0 0 0 -175.267 2.71839 0.548397 -1.49012e-007 42.8363 -0.548138 2.59275 -15.4562 3.99194 -1.93724e-006 44.0461 -3.28883 4.88522 10.0833 -4.96695 -8.54246e-007 34.1929 -2.46662 5.91268 1.59539 -2.0926 1.41273e-007 30.0959 -1.75404 4.80086 9.80281 -1.31318 1.58405e-005 28.3637 -1.75404 8.83513 -4.97779 5.63584 8.32965e-006 31.6072 -3.2043 4.79207 -5.73403 -6.05005 -27.891 13.5892 3.92723 118.201 -23.6269 -51.6386 3.97677e-006 28.01 1.8232 18.5603 -85.4332 4.14303 -7.35825e-008 24.3992 -2.49173 -150.65 54.8486 -164.677 27.891 13.5892 3.92714 -100.707 -22.2113 60.5331 -3.82109e-006 28.0098 1.82319 -3.45579 -67.3212 9.55729 3.68211e-008 24.3992 -2.49172 140.671 67.4046 166.911 6.07685e-007 2.15392 3.55271e-015 0.428605 -0.221735 0.0914026 9.09661e-013 62.0609 0.472498 -1.49089e-016 1.18776e-015 1.2424e-017 22.6695 9.65299 -5.36221 -147.075 3.71795 45.0621 1.42109e-014 25.813 1.69097 179.96 -79.745 179.914 2.17514e-009 28.5636 -0.966307 42.7282 13.3423 -92.5557 -22.6695 9.65298 -5.3622 131.563 -7.13303 -53.6053 0 25.813 1.69103 -179.806 -74.9965 -177.697 3.82828e-006 28.5636 -0.966302 -43.5113 33.9845 111.546 -5.67713e-013 23.1438 -0.944992 -0.709968 -3.58678 0.469171 -4.28287e-009 20.8625 4.12738 -0.675416 -3.70017 0.52173 -4.45517e-008 7.55203 -7.58201 -1.07747e-005 4.15047 1.07706e-005 
0.455925 27.2862 0.272341 -90 -3.50835e-015 -90 0 0 0 -175.856 2.35082 0.585612 -1.49012e-007 42.8363 -0.548138 2.22806 -14.9995 4.24748 -1.87887e-006 44.0461 -3.28883 4.37779 10.7504 -4.6614 -7.56344e-007 34.1929 -2.46662 5.41055 2.10767 -2.47572 2.83812e-007 30.0959 -1.75404 3.59756 10.1831 -1.86178 1.64242e-005 28.3637 -1.75404 8.21497 -2.8715 5.33302 9.10762e-006 31.6072 -3.2043 4.35592 -4.55308 -6.7357 -27.891 13.5892 3.92723 114.551 -26.0658 -50.926 4.04412e-006 28.01 1.8232 57.0868 -87.8211 39.1091 -4.60921e-007 24.3992 -2.49173 -154.847 48.0514 -165.266 27.891 13.5892 3.92714 -98.9899 -23.0043 61.2342 -3.81726e-006 28.0098 1.82319 -3.35693 -66.1634 9.52667 8.99418e-008 24.3992 -2.49172 140.485 67.5354 167.021 6.07685e-007 2.15392 0 0.846997 -0.0332563 0.178146 5.55112e-017 62.0609 0.472498 1.98785e-016 3.40496e-016 9.93923e-017 22.6695 9.65299 -5.36221 -145.753 4.60549 42.6115 0 25.813 1.69097 179.957 -81.5803 -179.919 3.75886e-009 28.5636 -0.966307 44.7786 13.3608 -90.838 -22.6695 9.65298 -5.3622 132.369 -8.67072 -53.4807 -7.10543e-015 25.813 1.69103 -179.842 -74.6905 -177.362 3.84204e-006 28.5636 -0.966302 -43.61 33.0813 112.802 -4.54636e-013 23.1438 -0.944992 -1.41767 -3.38472 2.15276 -5.74622e-009 20.8625 4.12738 -1.29148 -3.50034 2.29697 -6.83301e-009 7.55203 -7.58201 -1.00647e-005 5.31923 9.32062e-007 
0.488897 27.6413 0.40852 -90 -3.50835e-015 -90 0 0 0 -176.452 1.9783 0.615353 -1.49012e-007 42.8363 -0.548138 1.8604 -14.5362 4.51237 -1.81973e-006 44.0461 -3.28883 3.87391 12.089 -4.38718 -6.38871e-007 34.1929 -2.46662 4.90468 2.62461 -2.85264 4.56425e-007 30.0959 -1.75404 2.38081 10.5633 -2.3992 1.70532e-005 28.3637 -1.75404 7.60233 -0.737326 5.07334 9.96006e-006 31.6072 -3.2043 3.91868 -3.35908 -7.40961 -27.891 13.5892 3.92723 109.004 -27.6848 -51.2909 3.99968e-006 28.01 1.8232 131.993 -87.0239 109.506 -8.99362e-007 24.3992 -2.49173 -158.973 43.6348 -166.079 27.891 13.5892 3.92714 -97.1775 -23.6759 61.9915 -3.80175e-006 28.0098 1.82319 -3.26733 -64.9946 9.48616 1.43586e-007 24.3992 -2.49172 140.3 67.6633 167.131 6.07685e-007 2.15392 7.10543e-015 1.26903 0.154434 0.263569 0 62.0609 0.472498 -5.96354e-016 -5.77718e-016 2.68086e-012 22.6695 9.65299 -5.36221 -144.635 5.48495 40.1159 -1.42109e-014 25.813 1.69097 179.946 -83.434 -179.758 4.69333e-009 28.5636 -0.966307 46.8458 13.3348 -90.0239 -22.6695 9.65298 -5.3622 133.067 -10.2568 -51.8248 -7.10543e-015 25.813 1.69103 -179.865 -75.7762 -177.01 3.84939e-006 28.5636 -0.966302 -44.4597 32.1802 114.488 -4.54858e-013 23.1438 -0.944992 -2.13285 -3.48484 4.34495 -5.74622e-009 20.8625 4.12738 -1.78941 -3.70026 4.57638 5.01289e-008 7.55203 -7.58201 -1.08888e-005 4.75275 1.08847e-005 
0.522192 27.9999 0.546034 -90 -3.50835e-015 -90 0 0 0 -177.053 1.60143 0.63774 -1.49012e-007 42.8363 -0.548138 1.49057 -14.0672 4.78649 -1.75995e-006 44.0461 -3.28883 3.35721 13.4425 -4.0843 -5.2073e-007 34.1929 -2.46662 3.77094 3.14941 -3.18951 6.65537e-007 30.0959 -1.75404 1.14809 10.9434 -2.92578 1.77162e-005 28.3637 -1.75404 6.99158 1.42345 4.85746 1.08697e-005 31.6072 -3.2043 3.47968 -2.15121 -8.07187 -27.891 13.5892 3.92723 102.274 -26.3218 -52.4416 3.72607e-006 28.01 1.8232 73.1095 -87.2805 45.9423 -1.18802e-006 24.3992 -2.49173 -160.624 44.9436 -167.064 27.891 13.5892 3.92714 -95.2803 -24.2159 62.8081 -3.7743e-006 28.0098 1.82319 -3.23336 -64.2284 9.38608 2.1139e-007 24.3992 -2.49172 140.099 67.8 167.256 6.07685e-007 2.15392 3.55271e-015 1.6983 0.35011 0.347237 -5.55112e-017 62.0609 0.472498 -1.0138e-013 -1.52628e-013 1.00179e-005 22.6695 9.65299 -5.36221 -143.649 4.28833 38.3027 -1.42109e-014 25.813 1.69097 179.927 -85.328 -179.604 4.96991e-009 28.5636 -0.966307 48.1865 12.3891 -89.59 -22.6695 9.65298 -5.3622 131.145 -11.2344 -50.4891 0 25.813 1.69103 -179.893 -76.8743 -176.659 3.85514e-006 28.5636 -0.966302 -46.7165 30.6536 115.546 -4.54747e-013 23.1438 -0.944992 -2.69296 -4.00239 6.41749 -5.74622e-009 20.8625 4.12738 -2.29255 -4.61846 6.59648 9.91798e-008 7.55203 -7.58201 -1.0578e-005 3.09645 1.05738e-005 
0.55484 28.3516 0.680878 -90 -3.50835e-015 -90 0 0 0 -177.643 1.23084 0.652083 -1.49011e-007 42.8363 -0.548138 1.13073 -13.6084 5.06018 -1.70153e-006 44.0461 -3.28883 2.38208 14.7745 -3.64505 -3.7935e-007 34.1929 -2.46662 2.65771 3.66454 -3.50015 8.90955e-007 30.0959 -1.75405 -0.0637437 11.3116 -3.42639 1.83738e-005 28.3637 -1.75403 6.04367 3.55099 4.71171 1.18539e-005 31.6072 -3.2043 3.05182 -0.966427 -8.70321 -27.891 13.5892 3.92723 97.173 -22.8091 -52.7421 3.29317e-006 28.01 1.8232 50.5655 -86.1291 17.6515 -1.35266e-006 24.3992 -2.49173 -161.313 48.9663 -169.278 27.891 13.5892 3.92714 -93.3694 -24.6268 64.5448 -3.74876e-006 28.0098 1.82319 -3.2024 -63.4769 9.49174 2.57771e-007 24.3992 -2.49172 139.908 67.9287 167.836 6.07685e-007 2.15392 3.55271e-015 2.11942 0.963817 0.411092 -4.44089e-016 62.0609 0.472498 3.97569e-016 1.72384e-015 3.30907e-012 22.6695 9.65299 -5.36221 -144.185 0.728992 38.4337 1.42109e-014 25.813 1.69097 179.405 -89.4724 -179.957 3.09039e-009 28.5636 -0.966307 46.8138 10.2344 -90.5011 -22.6695 9.65298 -5.3622 128.942 -13.1675 -47.0181 7.10543e-015 25.813 1.69103 -179.924 -77.9519 -176.318 3.85915e-006 28.5636 -0.966302 -49.9754 30.7715 117.181 -4.54969e-013 23.1438 -0.944992 -2.93362 -5.20625 8.18546 -5.74622e-009 20.8625 4.12738 -2.54544 -6.2076 8.19567 1.43115e-007 7.55203 -7.58201 -1.05473e-005 2.93024 1.05432e-005 
0.587811 28.7068 0.817056 -90 -3.50835e-015 -90 0 0 0 -178.237 0.85681 0.65865 -1.49011e-007 42.8363 -0.548138 0.769003 -13.1436 5.34314 -1.64259e-006 44.0461 -3.28883 1.38608 16.1177 -3.15342 -2.40591e-007 34.1929 -2.46662 1.53205 4.18448 -3.79351 1.11117e-006 30.0959 -1.75405 -1.28997 11.6783 -3.91553 1.90147e-005 28.3637 -1.75402 5.0736 3.0892 4.86949 1.27712e-005 31.6072 -3.2043 2.62088 0.232347 -9.66811 -27.891 13.5892 3.92723 93.3049 -18.5148 -52.5066 2.76989e-006 28.01 1.8232 67.552 -86.3453 28.9038 -1.38781e-006 24.3992 -2.49173 -161.96 54.2196 -170.345 27.891 13.5892 3.92714 -93.0919 -24.7534 63.2702 -3.72997e-006 28.0098 1.82319 -3.17329 -62.7181 9.59679 2.80598e-007 24.3992 -2.49172 141.134 68.4643 167.107 6.07685e-007 2.15392 3.55271e-015 2.21103 1.58297 0.474664 -2.22045e-016 62.0609 0.472498 1.6022e-013 -2.52311e-013 1.00179e-005 22.6695 9.65299 -5.36221 -144.561 -2.90555 39.8312 7.10543e-015 25.813 1.69097 0.0808429 -86.3427 0.232573 2.18489e-009 28.5636 -0.966306 45.5383 7.95869 -91.5303 -22.6695 9.65298 -5.3622 126.612 -14.9161 -43.6759 1.42109e-014 25.813 1.69103 -179.956 -80.2753 -176.436 3.84126e-006 28.5636 -0.966301 -53.4607 30.5663 118.995 -4.54747e-013 23.1438 -0.944992 -2.46497 -7.13581 9.63752 -5.74622e-009 20.8625 4.12738 -2.4326 -8.41634 9.33379 1.83736e-007 7.55203 -7.58201 -1.05182e-005 2.77198 1.0514e-005 
